<?xml version="1.0" encoding="UTF-8"?>
<svg width="1015px" height="218px" viewBox="0 0 1015 218" version="1.1" xmlns="http://www.w3.org/2000/svg" xmlns:xlink="http://www.w3.org/1999/xlink">
    <!-- Generator: Sketch 52.5 (67469) - http://www.bohemiancoding.com/sketch -->
    <title>Logotype</title>
    <desc>Created with Sketch.</desc>
    <g id="Dot-First-2019" stroke="none" stroke-width="1" fill="none" fill-rule="evenodd">
        <g id="Logotype" transform="translate(-93.000000, -241.000000)" fill="#CE8000">
            <g id="Dot-First" transform="translate(93.000000, 241.000000)">
                <g>
                    <path d="M45.001,171.9016 L54.301,171.9016 C65.102,171.9016 75.002,169.5026 75.002,147.9016 L75.002,70.8006 C75.002,49.2006 66.002,46.5006 54.301,46.5006 L45.001,46.5006 L45.001,171.9016 Z M0,3.0006 L59.701,3.0006 C95.102,3.0006 119.402,27.0006 119.402,70.5016 L119.402,148.2016 C119.402,191.7026 95.102,214.8016 59.701,214.8016 L0,214.8016 L0,3.0006 Z" id="D"></path>
                    <path d="M182.7598,60.9006 L182.7598,157.2016 C182.7598,172.5026 191.1598,174.3016 197.7598,174.3016 C202.8598,174.3016 212.4598,172.8016 212.4598,157.2016 L212.4598,60.9006 C212.4598,45.2996 204.6598,43.5006 197.7598,43.5006 C190.8598,43.5006 182.7598,45.2996 182.7598,60.9006 M138.0588,155.7016 L138.0588,62.4006 C138.0588,25.7996 162.3598,0.2996 197.7598,0.2996 C232.5608,0.2996 257.4608,25.7996 257.4608,62.4006 L257.4608,155.7016 C257.4608,192.3016 232.5608,217.5026 197.7598,217.5026 C162.3598,217.5026 138.0588,192.3016 138.0588,155.7016" id="O"></path>
                    <polygon id="T" points="348.5684 46.8 348.5684 214.802 303.2684 214.802 303.2684 46.8 272.6684 46.8 272.6684 3 379.1704 3 379.1704 46.8"></polygon>
                    <polygon id="F" points="502.7676 46.8 502.7676 88.801 541.7676 88.801 541.7676 128.102 502.7676 128.102 502.7676 214.802 458.0666 214.802 458.0666 3 554.3676 3 554.3676 46.8"></polygon>
                    <polygon id="I" points="573.387 214.802 618.087 214.802 618.087 3 573.387 3"></polygon>
                    <path d="M687.9219,122.1008 L696.0229,122.1008 C706.2229,122.1008 716.7229,119.7018 716.7229,97.8008 L716.7229,70.8008 C716.7229,49.2008 707.4229,46.4998 696.0229,46.4998 L687.9219,46.4998 L687.9219,122.1008 Z M642.9219,2.9998 L701.7229,2.9998 C736.8219,2.9998 761.4239,26.9998 761.4239,70.5008 L761.4239,98.4008 C761.4239,124.5008 752.7229,143.1018 738.3219,153.9018 L760.8229,214.8018 L712.2229,214.8018 L697.5229,165.0018 L687.9219,165.0018 L687.9219,214.8018 L642.9219,214.8018 L642.9219,2.9998 Z" id="R"></path>
                    <path d="M894.8027,59.7004 L850.7017,59.7004 C850.7017,45.9004 842.3027,42.6004 835.7017,42.6004 C828.8017,42.6004 821.9027,46.8004 821.9027,55.8014 C821.9027,87.0014 896.9027,99.3014 896.9027,159.3024 C896.9027,195.0024 873.2027,217.8024 836.3027,217.8024 C800.9027,217.8024 775.4017,192.9014 775.4017,156.3024 L820.1017,156.3024 C820.1017,171.0024 829.4027,174.0024 836.6017,174.0024 C843.5017,174.0024 851.3027,170.4014 851.3027,159.9014 C851.3027,126.9014 777.5017,114.3014 777.5017,56.1004 C777.5017,22.2004 800.9027,0.0004 836.3027,0.0004 C870.2017,0.0004 894.8027,24.5994 894.8027,59.7004" id="S"></path>
                    <polygon id="T" points="984.3203 46.8 984.3203 214.802 939.0193 214.802 939.0193 46.8 908.4193 46.8 908.4193 3 1014.9203 3 1014.9203 46.8"></polygon>
                </g>
            </g>
        </g>
    </g>
</svg>